<svg xmlns="http://www.w3.org/2000/svg" xmlns:xlink="http://www.w3.org/1999/xlink" viewBox="0 0 395.58 843.63"><defs><style>.cls-1{fill:none;}.cls-2{isolation:isolate;}.cls-14,.cls-3{fill:#f9b434;}.cls-4{fill:#fada5c;}.cls-5{fill:#9edb76;}.cls-6{fill:#f0f0f0;}.cls-7{fill:#3f81aa;}.cls-8{clip-path:url(#clip-path);}.cls-9{fill:#4987ea;}.cls-14,.cls-9{opacity:0.3;mix-blend-mode:multiply;}.cls-10{fill:#fff;}.cls-11{fill:#212121;}.cls-12{clip-path:url(#clip-path-2);}.cls-13{fill:#ebe893;}</style><clipPath id="clip-path"><path class="cls-1" d="M158.09,261.07A73.8,73.8,0,0,0,175.87,268c11,2.88,29.86.16,37.25-14.16,8.07-15.65,9.92-24.74,1.49-30.13s-13.94-10-24.67-5.75-18.51,7.05-23.83,18.92S157.47,258.86,158.09,261.07Z"/></clipPath><clipPath id="clip-path-2"><path class="cls-1" d="M332,229.18A64.62,64.62,0,0,1,317.83,238c-9,4.24-25.58,4.92-34.22-6.18-9.43-12.13-12.47-19.62-6.1-25.6s10.35-10.79,20.23-8.88,17,3.08,23.47,12.4S332.15,227.18,332,229.18Z"/></clipPath></defs><title>Pata Suki</title><g class="cls-2"><g id="Layer_2" data-name="Layer 2"><g id="Layer_2-2" data-name="Layer 2"><path class="cls-3" d="M208.45,689.14S224.34,722,231.3,727.73s2.84,76.86,1.69,87.67,43.47,6.69,77.85,7.79c19.51,2.48,23.91-19.35,19.07-25.33s-34.72-16.94-38-29.49,9.35-25.7,4.27-57.36-15.34-50-15.34-50Z"/><path class="cls-3" d="M110,621.14S103.88,741.88,119.1,779c0,0-8.8,28.3-25.59,32S83.19,848.5,119.1,843s39.4.7,48.44-17.28-2-160.48,22.1-177.71Z"/><path class="cls-4" d="M148.77,345.48S8.31,540.58,75.69,643.6s158.68,71,200,54.31S362.16,567.79,317.16,452,251.27,318.85,219,317.55,170.36,324.2,148.77,345.48Z"/><path class="cls-4" d="M162.69,125.68S83.35,148,77.1,103.62c-10.48-74.41-21-82.56-36-84.66,0,0,72.12-16.6,91.31,11A33.41,33.41,0,0,0,123.5,0s97.36,36.75,67.94,112.31Z"/><path class="cls-4" d="M200,124.17S126.35,132.82,89.52,207,111,390.8,247.87,372.4,363.26,219.6,346.68,195,283.8,120.64,200,124.17Z"/><path class="cls-5" d="M129.92,165.13s-19.51-2.47-14.31-15.81,76-58.45,95.14-36.66-12.9,22.62-31.42,30.76Z"/><path class="cls-6" d="M156,261.27s12.57,5.32,23.95,4.21c13.13-1.3,21.24-2,31.07-11.45,13.45-13,11.17-18.17,6.14-26.28-5.35-8.61-15.71-12.85-26.47-8.26s-19.31,6.28-24.72,19S155.36,258.91,156,261.27Z"/><ellipse class="cls-7" cx="199.77" cy="233.96" rx="14.39" ry="14.37" transform="translate(-62.47 394.82) rotate(-81.03)"/><g class="cls-8"><path class="cls-9" d="M167,264.53s7.62-23.72,27.57-26.12,24,4.21,24,4.21,7.31-13.53-8.54-22.77c-8.67-5.06-13.23-4.83-28.5,1.28s-25,35.09-25.7,38S167,264.53,167,264.53Z"/></g><circle class="cls-10" cx="200.91" cy="229.01" r="3.8" transform="translate(-56.61 391.78) rotate(-81.03)"/><path class="cls-11" d="M214.61,223.7s-7.35-10-24.15-6.33-32,24.39-33.35,33.08l-12.75,1.18s11.8,11.76,16,11.37c0,0,5-36.15,30.44-41.38C209.77,217.72,214.61,223.7,214.61,223.7Z"/><path class="cls-11" d="M151.38,217.07s9.22-23.63,32-32.08c25.58-9.48,29-3.16,29.29-6.52.33-3.91-15.44-2.94-29.72,2.13S153.82,202.32,151.38,217.07Z"/><path class="cls-11" d="M323.28,181.88s-12.41-15.43-29.87-16.33c-19.58-1-20.18,4.52-21.26,2.08-1.26-2.84,9.52-5.85,20.39-5.45S317.74,171.46,323.28,181.88Z"/><path class="cls-6" d="M333.82,229s-9.93,6.59-19.87,7.45c-11.47,1-18.53,1.72-28.48-4.84-13.61-9-12.49-13.79-9.47-21.55a18,18,0,0,1,21.38-11.32c10,2.21,17.56,2.28,24.24,12.33S334,226.89,333.82,229Z"/><ellipse class="cls-7" cx="291.88" cy="212.6" rx="12.54" ry="12.55" transform="translate(-54.31 109.92) rotate(-19.55)"/><g class="cls-12"><path class="cls-9" d="M324.9,233.57s-10.34-19.12-27.83-18S277.2,223,277.2,223s-8.45-10.43,3.67-20.9c6.62-5.72,10.57-6.26,24.64-3.46s27,26.09,28.14,28.48S324.9,233.57,324.9,233.57Z"/></g><circle class="cls-10" cx="290.11" cy="208.54" r="3.31" transform="translate(-53.06 109.09) rotate(-19.55)"/><path class="cls-11" d="M273.49,211.82s4.8-17.58,26.44-15.3,29.77,20.81,29.77,20.81l8.11-5s1,10.62-7.32,13.53c0,0-12.78-22.38-30.17-25S273.49,211.82,273.49,211.82Z"/><path class="cls-3" d="M257.33,245.45c-15,1.39-22.18,14.91-30.48,17.82s-71.24,17.31-72.58,26-5.74,30.53,40.2,17.7,114.86-32.06,138.62-30,35.87-29,22.73-32.1-61.4,7.83-70.09,6.49S270.07,244.27,257.33,245.45Z"/><path class="cls-4" d="M121.12,440.16s-143.18-42.44-118-117.61,80.16-106,95-107.34-10.69,69.54-25.33,96.6,87.76,45.43,87.76,45.43Z"/><path class="cls-4" d="M280.74,303.28C266,307,245.71,369,275.22,426.5S380.92,497,394,455.66s-60.34-77-69.58-98.42S309.11,296.19,280.74,303.28Z"/><path class="cls-13" d="M134,699S104.17,525.19,183.1,461.2s138.65,14.93,134.39,70.39-4.27,132.26-25.6,156.79S185.23,738.5,134,699Z"/><path class="cls-14" d="M381.48,467.6s-57.6-14.93-76.79-55.46c-12.84-27.1-23.72-68.29-21.33-89.6,1.18-10.56,17.06-14.93,17.06-14.93s-21.33-4.26-27.73,12.8-17.07,74.66,12.8,110.92,41.59,54.93,41.59,54.93l-3.73-16s15.47,16.54,42.13,9.07S381.48,467.6,381.48,467.6Z"/><path class="cls-14" d="M93.86,309.75s87.11,70.39,149,53.32c0,0-64,17.07-81.06,12.8S132.26,351,132.26,351,104.88,331.08,93.86,309.75Z"/><path class="cls-14" d="M19.91,284.86S-11,346,42.31,378s83.19,34.13,83.19,34.13L82.84,465.82l12.8-34.13s-46.22-23.11-58.31-32S.36,368.76,0,343.52,19.91,284.86,19.91,284.86Z"/><path class="cls-14" d="M123.37,500.47c5.77-18.44,85.33-61,147.19-28.7s61.86,70,49.06,93.28S213,577.6,181,561.46,112.7,534.55,123.37,500.47Z"/><path class="cls-3" d="M264.16,305.48s10.66-14.93,32-10.67C296.15,294.81,272.69,279.88,264.16,305.48Z"/><path class="cls-14" d="M153.59,294.81s35.91,8.54,117-12.8,86.74-20.62,90.3-27.37c0,0-.71,12.44-15.64,21S292.6,281.3,273.05,287s-55.82,20.62-70.75,22.76S156.08,318.28,153.59,294.81Z"/><path class="cls-14" d="M41.09,19S82.84,26,93.51,47.37s44.08,77.5,76.43,65.42c0,0-18.84,26.31,8.89,30.57,0,0-46.93,21.33-49.06,21.33-6.75,0-12.8-12.8-2.13-25.59l14.57-11.74s-5.33,4.62-18.48,3.91-28.19-2.91-38-10c-5-3.56-9.61-14.25-11.38-35.55C72.18,60.17,72.38,23.93,41.09,19Z"/><path class="cls-14" d="M88.53,300.15s13.8-35.78,19.91-48c6.4-12.8,1.42-24.89-5.69-26.31,0,0,5.69,13.51-.71,24.18S83.91,287.7,83.91,287.7Z"/><path class="cls-14" d="M124.3.91s14,10.2,14,25.13-2.13,21.33-2.13,21.33l-3.69-17.69S136.17,13.24,124.3.91Z"/><path class="cls-14" d="M288.51,251.26l-60.62,11.56s12.09-9.25,18.85-14.22,4.62,1.42,15.28,3.55S288.51,251.26,288.51,251.26Z"/><path class="cls-14" d="M69.33,634.69s76.79,66.84,155,51.2,93.86-41.24,93.86-41.24-21,37.68-26.85,44.44c0,0,6.58,22.39,5.69,29.51,0,0-22.22-5.69-35,.71S234.12,738,234.12,738s.17-5.86-2-10.13-5.69-10.31-5.69-10.31-9.95,2.49-25.6,2.13A177.58,177.58,0,0,1,173.5,717l-1.07,25.77S151.1,715,136.17,717.17s-27.55,12.27-27.55,12.27-2-38.58-1.07-48.89C107.55,680.55,75,648.2,69.33,634.69Z"/></g></g></g></svg>